<svg xmlns="http://www.w3.org/2000/svg" viewBox="0 0 1200 750" role="img" aria-labelledby="title desc" data-premium-preview="true"><title id="title">Avery Cole Law premium website preview</title><desc id="desc">Laptop and mobile presentation with photographic legal imagery.</desc><defs><clipPath id="law-screen"><rect x="420" y="140" width="600" height="390" rx="16"/></clipPath><clipPath id="law-phone"><rect x="934" y="282" width="145" height="292" rx="22"/></clipPath></defs><rect width="1200" height="750" fill="#f5f1e8"/><rect x="0" y="0" width="1200" height="750" fill="#132137" opacity=".04"/><text x="70" y="92" fill="#a57b3e" font-family="Arial" font-size="20" font-weight="700" letter-spacing="5">AVERY COLE LAW</text><text x="70" y="185" fill="#132137" font-family="Georgia" font-size="61">Credibility first.</text><text x="70" y="252" fill="#a57b3e" font-family="Georgia" font-size="61" font-style="italic">Clarity throughout.</text><text x="72" y="315" fill="#4f5867" font-family="Arial" font-size="20">Premium legal-services template</text><g data-device-frame="laptop"><rect x="392" y="110" width="656" height="452" rx="28" fill="#101925"/><rect x="420" y="140" width="600" height="390" rx="16" fill="#fff"/><image href="/assets/screenshots/avery-cole-law-desktop.jpg" x="420" y="140" width="600" height="390" preserveAspectRatio="xMidYMid slice" clip-path="url(#law-screen)"/><rect x="365" y="558" width="710" height="20" rx="10" fill="#b9b5ac"/></g><g data-device-frame="phone"><rect x="914" y="262" width="185" height="332" rx="34" fill="#111a26"/><rect x="934" y="282" width="145" height="292" rx="22" fill="#fff"/><image href="/assets/screenshots/avery-cole-law-mobile.jpg" x="934" y="282" width="145" height="292" preserveAspectRatio="xMidYMid slice" clip-path="url(#law-phone)"/></g><rect x="70" y="390" width="250" height="58" rx="2" fill="#a57b3e"/><text x="107" y="427" fill="#fff" font-family="Arial" font-weight="700" font-size="17">VIEW LEGAL DEMO</text><text x="72" y="690" fill="#7f7465" font-family="Arial" font-size="16" letter-spacing="3">BRIOFRAME TEMPLATE STUDIO</text></svg>