<svg xmlns="http://www.w3.org/2000/svg" viewBox="0 0 1200 750" role="img" data-premium-preview="true"><defs><clipPath id="screen"><rect x="420" y="142" width="610" height="398" rx="18"/></clipPath><clipPath id="phone"><rect x="932" y="304" width="150" height="286" rx="22"/></clipPath><linearGradient id="bg" x1="0" x2="1"><stop offset="0" stop-color="#fff8f0"/><stop offset="1" stop-color="#f1dfd3"/></linearGradient></defs><rect width="1200" height="750" fill="url(#bg)"/><circle cx="1102" cy="106" r="192" fill="#f3e4d8"/><text x="58" y="88" fill="#c64b38" font-family="Arial" font-weight="800" font-size="19" letter-spacing="4">COMMON GROUND FOUNDATION</text><text x="58" y="177" fill="#263629" font-family="Georgia" font-size="54">Turn concern</text><text x="58" y="236" fill="#263629" font-family="Georgia" font-size="54">into visible change.</text><text x="60" y="292" fill="#6f786f" font-family="Arial" font-size="18">Food access • youth mentoring • neighborhood grants</text><g data-device-frame="laptop"><rect x="390" y="112" width="670" height="460" rx="30" fill="#24342d"/><rect x="420" y="142" width="610" height="398" rx="18" fill="#fff"/><image href="/assets/images/premium/834301cd375235.jpg" x="420" y="142" width="610" height="398" preserveAspectRatio="xMidYMid slice" clip-path="url(#screen)"/><rect x="355" y="568" width="740" height="22" rx="11" fill="#9d8f84"/></g><g data-device-frame="phone"><rect x="912" y="282" width="190" height="330" rx="34" fill="#24342d"/><rect x="932" y="304" width="150" height="286" rx="22" fill="#fff"/><image href="/assets/images/premium/e98c9d69ebff5d.jpg" x="932" y="304" width="150" height="286" preserveAspectRatio="xMidYMid slice" clip-path="url(#phone)"/></g><rect x="58" y="388" width="238" height="58" fill="#c64b38"/><text x="84" y="425" fill="#fffaf6" font-family="Arial" font-weight="800" font-size="16">EXPLORE TEMPLATE</text><text x="58" y="676" fill="#80736a" font-family="Arial" font-size="15" letter-spacing="3">BRIOFRAME TEMPLATE STUDIO</text></svg>