<svg xmlns="http://www.w3.org/2000/svg" viewBox="0 0 1200 750" role="img" data-premium-preview="true"><defs><clipPath id="screen"><rect x="410" y="145" width="610" height="395" rx="16"/></clipPath><clipPath id="phone"><rect x="925" y="300" width="150" height="290" rx="22"/></clipPath></defs><rect width="1200" height="750" fill="#edf1f3"/><rect x="0" y="0" width="355" height="750" fill="#0e2138"/><rect x="0" y="0" width="355" height="24" fill="#e88934"/><text x="55" y="95" fill="#fff" font-family="Arial" font-weight="900" font-size="23" letter-spacing="6">MERIDIAN SUPPLY CO.</text><text x="55" y="195" fill="#fff" font-family="Arial" font-weight="900" font-size="58">WHOLESALE</text><text x="55" y="258" fill="#e88934" font-family="Arial" font-weight="900" font-size="58">SUPPLY.</text><text x="55" y="322" fill="#fff" font-family="Arial" font-weight="900" font-size="58">DELIVERED.</text><text x="57" y="382" fill="#b9c8d5" font-family="Arial" font-size="18">Catalog • RFQ • freight</text><text x="57" y="410" fill="#b9c8d5" font-family="Arial" font-size="18">volume pricing • dealer flow</text><g data-device-frame="laptop"><rect x="380" y="115" width="670" height="455" rx="28" fill="#101925"/><rect x="410" y="145" width="610" height="395" rx="16" fill="#fff"/><image href="/assets/images/premium/feda408230a863.jpg" x="410" y="145" width="610" height="395" preserveAspectRatio="xMidYMid slice" clip-path="url(#screen)"/><rect x="345" y="566" width="740" height="20" rx="10" fill="#9da5ac"/></g><g data-device-frame="phone"><rect x="905" y="280" width="190" height="330" rx="34" fill="#0c1723"/><rect x="925" y="300" width="150" height="290" rx="22" fill="#fff"/><image href="/assets/images/premium/5acdebf92d3323.jpg" x="925" y="300" width="150" height="290" preserveAspectRatio="xMidYMid slice" clip-path="url(#phone)"/></g><rect x="55" y="500" width="235" height="58" fill="#e88934"/><text x="85" y="538" fill="#0e2138" font-family="Arial" font-weight="900" font-size="17">VIEW TEMPLATE</text><text x="55" y="690" fill="#8ba0b4" font-family="Arial" font-size="15" letter-spacing="3">BRIOFRAME TEMPLATE STUDIO</text></svg>